<svg width="60" height="60" viewBox="0 0 60 60" fill="none" xmlns="http://www.w3.org/2000/svg">
<g filter="url(#filter0_d_1220_27969)">
<circle cx="30" cy="27" r="20" fill="#41D96A"/>
</g>
<g clip-path="url(#clip0_1220_27969)">
<path d="M24.9163 32.0918L28.2473 30.7173C28.3744 30.6705 28.473 30.6203 28.5433 30.5668C28.6135 30.5133 28.6887 30.4497 28.769 30.3761L38.3708 20.8446C38.839 20.3764 39.0714 19.8815 39.0681 19.3597C39.0647 18.838 38.8256 18.3363 38.3507 17.8548L36.2437 15.7277C35.7621 15.2528 35.2588 15.0103 34.7337 15.0003C34.2086 14.9903 33.712 15.2194 33.2438 15.6876L23.632 25.2191C23.5584 25.2927 23.4966 25.3646 23.4464 25.4349C23.3962 25.5051 23.3444 25.6004 23.2909 25.7208L21.8862 29.0518C21.7792 29.2993 21.7408 29.5434 21.7709 29.7842C21.801 30.025 21.913 30.2424 22.107 30.4363L23.5317 31.8711C23.719 32.0584 23.933 32.1687 24.1738 32.2022C24.4146 32.2357 24.6621 32.1988 24.9163 32.0918ZM24.7658 30.5367C24.6654 30.5701 24.5751 30.5835 24.4949 30.5768C24.4146 30.5701 24.3276 30.52 24.234 30.4264L23.5517 29.7441C23.4581 29.6571 23.4079 29.5718 23.4013 29.4883C23.3946 29.4046 23.4113 29.316 23.4514 29.2224L24.6955 26.3027L34.2572 16.8113C34.4043 16.6775 34.5582 16.6073 34.7187 16.6006C34.8792 16.5939 35.0263 16.6575 35.1602 16.7912L37.2771 18.9283C37.5647 19.2226 37.5547 19.5236 37.247 19.8313L27.6854 29.3226L24.7658 30.5367ZM21.0033 32.5935H22.2173C22.3578 32.5935 22.4698 32.5767 22.5534 32.5433C22.6371 32.5099 22.7324 32.4497 22.8394 32.3627L23.7825 31.6403L22.3377 30.1654L20.7124 31.8812C20.5652 32.0416 20.5217 32.2005 20.5819 32.3577C20.6421 32.5149 20.7826 32.5935 21.0033 32.5935ZM23.7825 26.3027L27.8861 30.4264L28.8292 29.4933L24.7256 25.3596L23.7825 26.3027ZM32.11 18.0454L36.2136 22.169L37.1567 21.246L33.0532 17.1123L32.11 18.0454ZM20.8027 36.1754H39.9761C40.1968 36.1754 40.3874 36.0951 40.5479 35.9346C40.7085 35.774 40.7888 35.5834 40.7888 35.3626C40.7888 35.1419 40.7085 34.953 40.5479 34.7958C40.3874 34.6386 40.1968 34.56 39.9761 34.56H20.8027C20.5819 34.56 20.393 34.6386 20.2358 34.7958C20.0786 34.953 20 35.1419 20 35.3626C20 35.5834 20.0786 35.774 20.2358 35.9346C20.393 36.0951 20.5819 36.1754 20.8027 36.1754Z" fill="white"/>
</g>
<defs>
<filter id="filter0_d_1220_27969" x="0" y="0" width="60" height="60" filterUnits="userSpaceOnUse" color-interpolation-filters="sRGB">
<feFlood flood-opacity="0" result="BackgroundImageFix"/>
<feColorMatrix in="SourceAlpha" type="matrix" values="0 0 0 0 0 0 0 0 0 0 0 0 0 0 0 0 0 0 127 0" result="hardAlpha"/>
<feOffset dy="3"/>
<feGaussianBlur stdDeviation="5"/>
<feComposite in2="hardAlpha" operator="out"/>
<feColorMatrix type="matrix" values="0 0 0 0 0 0 0 0 0 0 0 0 0 0 0 0 0 0 0.25 0"/>
<feBlend mode="normal" in2="BackgroundImageFix" result="effect1_dropShadow_1220_27969"/>
<feBlend mode="normal" in="SourceGraphic" in2="effect1_dropShadow_1220_27969" result="shape"/>
</filter>
<clipPath id="clip0_1220_27969">
<rect width="20.7888" height="24" fill="white" transform="translate(20 15)"/>
</clipPath>
</defs>
</svg>
